<?xml version="1.0" encoding="utf-8"?>
<!-- Generator: Adobe Illustrator 16.0.4, SVG Export Plug-In . SVG Version: 6.00 Build 0)  -->
<!DOCTYPE svg PUBLIC "-//W3C//DTD SVG 1.1//EN" "http://www.w3.org/Graphics/SVG/1.1/DTD/svg11.dtd">
<svg version="1.1" id="Layer_1" xmlns="http://www.w3.org/2000/svg" xmlns:xlink="http://www.w3.org/1999/xlink" x="0px" y="0px"
	 width="75px" height="53px" viewBox="0 0 75 53" enable-background="new 0 0 75 53" xml:space="preserve">
<g>
	<g>
		<circle fill="none" stroke="#888888" stroke-width="1.35" stroke-miterlimit="10" cx="23.543" cy="13.045" r="11.598"/>
		<path fill="none" stroke="#888888" stroke-width="1.35" stroke-miterlimit="10" d="M23.54,37.034l-9.002-9.002
			C6.566,30.461,0.986,36.009,0.986,42.468l0.001,9.073h45.106l-0.001-9.073c0-6.459-5.579-12.007-13.551-14.436L23.54,37.034z"/>
	</g>
	
		<line fill="none" stroke="#888888" stroke-linecap="round" stroke-linejoin="round" stroke-miterlimit="10" x1="41.625" y1="33.067" x2="41.625" y2="25.073"/>
	<polyline fill="none" stroke="#888888" stroke-linecap="round" stroke-linejoin="round" stroke-miterlimit="10" points="73,25.073 
		73,38.748 45.638,38.748 	"/>
	<path fill="none" stroke="#888888" stroke-linecap="round" stroke-linejoin="round" stroke-miterlimit="10" d="M56.385,23.572v0.95
		c0,0.755,0.07,1.492,0.824,1.492c0.756,0,0.826-0.747,0.826-1.504V23.56"/>
	<path fill="none" stroke="#888888" stroke-linecap="round" stroke-linejoin="round" stroke-miterlimit="10" d="M50.873,7.356V4.419
		c0-2.017,1.27-2.901,3.286-2.901h6.196c2.019,0,3.287,0.885,3.287,2.901v2.938"/>
	<path fill="none" stroke="#888888" stroke-linecap="round" stroke-linejoin="round" stroke-miterlimit="10" d="M43.348,7.356
		c-1.16,0-1.723,0.764-1.723,1.974v11.343c0,1.21,0.598,2.874,2.294,2.988h12.429l-0.018-1.588c0-0.418,0.172-1.106,0.879-1.106
		s0.898,0.675,0.898,1.106v1.588h12.109c1.945,0,2.783-1.663,2.783-2.874V9.33c0-1.21-0.588-1.974-1.738-1.974H43.348z"/>
</g>
</svg>
