<?xml version="1.0" encoding="utf-8"?>
<!-- Generator: Adobe Illustrator 16.0.4, SVG Export Plug-In . SVG Version: 6.00 Build 0)  -->
<!DOCTYPE svg PUBLIC "-//W3C//DTD SVG 1.1//EN" "http://www.w3.org/Graphics/SVG/1.1/DTD/svg11.dtd">
<svg version="1.1" id="Layer_1" xmlns="http://www.w3.org/2000/svg" xmlns:xlink="http://www.w3.org/1999/xlink" x="0px" y="0px"
	 width="37px" height="37px" viewBox="0 0 37 37" enable-background="new 0 0 37 37" xml:space="preserve">
<g>
	<path fill="#CCCCCC" d="M18.505,37c-0.001,0-0.001,0-0.002,0v-0.5L18.5,37C8.297,37,0,28.701,0,18.5S8.299,0,18.5,0
		S37,8.299,37,18.5c0,4.941-1.924,9.587-5.417,13.082C28.09,35.075,23.445,37,18.505,37z M18.5,1C8.851,1,1,8.851,1,18.5
		S8.849,36,18.497,36h0.007c0,0,0.001,0,0.001,0c4.673,0,9.066-1.82,12.371-5.125C34.18,27.569,36,23.175,36,18.5
		C36,8.851,28.149,1,18.5,1z"/>
	<g>
		
			<rect x="17.995" y="4.973" transform="matrix(0.7071 0.7071 -0.7071 0.7071 18.4991 -7.6589)" fill="#CCCCCC" width="1" height="27.056"/>
		
			<rect x="4.971" y="18.002" transform="matrix(0.707 0.7072 -0.7072 0.707 18.505 -7.6588)" fill="#CCCCCC" width="27.049" height="1"/>
	</g>
</g>
</svg>
