<?xml version="1.0" encoding="utf-8"?>
<!-- Generator: Adobe Illustrator 16.0.4, SVG Export Plug-In . SVG Version: 6.00 Build 0)  -->
<!DOCTYPE svg PUBLIC "-//W3C//DTD SVG 1.1//EN" "http://www.w3.org/Graphics/SVG/1.1/DTD/svg11.dtd">
<svg version="1.1" id="Layer_1" xmlns="http://www.w3.org/2000/svg" xmlns:xlink="http://www.w3.org/1999/xlink" x="0px" y="0px"
	 width="46px" height="46px" viewBox="0 0 46 46" enable-background="new 0 0 46 46" xml:space="preserve">
<g>
	<circle fill="#DF4A31" cx="23" cy="23" r="22.5"/>
</g>
<g>
	<path fill="#FFFFFF" d="M24.605,24.61l-1.066-0.827c-0.323-0.27-0.767-0.624-0.767-1.274c0-0.653,0.444-1.068,0.828-1.452
		c1.242-0.977,2.48-2.016,2.48-4.207c0-2.251-1.416-3.436-2.096-3.998h1.83l1.924-1.208h-5.823c-1.597,0-3.9,0.378-5.586,1.77
		c-1.271,1.096-1.89,2.608-1.89,3.968c0,2.31,1.773,4.651,4.905,4.651c0.295,0,0.619-0.03,0.944-0.06
		c-0.146,0.355-0.294,0.652-0.294,1.155c0,0.917,0.472,1.479,0.887,2.011c-1.331,0.093-3.814,0.24-5.646,1.366
		c-1.744,1.037-2.275,2.546-2.275,3.611c0,2.192,2.067,4.235,6.354,4.235c5.083,0,7.772-2.812,7.772-5.597
		C27.088,26.712,25.906,25.706,24.605,24.61z M20.734,21.204c-2.542,0-3.694-3.287-3.694-5.27c0-0.772,0.146-1.569,0.649-2.192
		c0.474-0.593,1.3-0.978,2.071-0.978c2.45,0,3.722,3.316,3.722,5.449c0,0.533-0.058,1.479-0.737,2.163
		C22.267,20.851,21.472,21.204,20.734,21.204z M20.763,33.113c-3.161,0-5.201-1.513-5.201-3.615s1.891-2.813,2.542-3.049
		c1.241-0.419,2.836-0.477,3.103-0.477c0.295,0,0.443,0,0.678,0.029c2.248,1.601,3.223,2.397,3.223,3.913
		C25.107,31.747,23.6,33.113,20.763,33.113z"/>
	<polygon fill="#FFFFFF" points="32.068,21.159 32.068,18.198 30.605,18.198 30.605,21.159 27.65,21.159 27.65,22.638 
		30.605,22.638 30.605,25.617 32.068,25.617 32.068,22.638 35.039,22.638 35.039,21.159 	"/>
</g>
</svg>
