<?xml version="1.0" encoding="utf-8"?>
<!-- Generator: Adobe Illustrator 16.0.4, SVG Export Plug-In . SVG Version: 6.00 Build 0)  -->
<!DOCTYPE svg PUBLIC "-//W3C//DTD SVG 1.1//EN" "http://www.w3.org/Graphics/SVG/1.1/DTD/svg11.dtd">
<svg version="1.1" id="Layer_1" xmlns="http://www.w3.org/2000/svg" xmlns:xlink="http://www.w3.org/1999/xlink" x="0px" y="0px"
	 width="46px" height="46px" viewBox="0 0 46 46" enable-background="new 0 0 46 46" xml:space="preserve">
<g>
	<circle fill="#007BB5" cx="22.715" cy="22.604" r="22.5"/>
	<path fill="#FFFFFF" d="M12.588,17.73h4.748V33h-4.748V17.73z M14.961,10.139c1.518,0,2.751,1.232,2.751,2.748
		c0,1.521-1.233,2.756-2.751,2.756c-1.521,0-2.751-1.234-2.751-2.756C12.21,11.371,13.44,10.139,14.961,10.139"/>
	<path fill="#FFFFFF" d="M20.313,17.73h4.553v2.086h0.063c0.635-1.202,2.182-2.469,4.491-2.469c4.804,0,5.69,3.164,5.69,7.277V33
		H30.37v-7.426c0-1.771-0.035-4.05-2.468-4.05c-2.47,0-2.846,1.93-2.846,3.92V33h-4.743V17.73z"/>
</g>
</svg>
