<?xml version="1.0" encoding="utf-8"?>
<!-- Generator: Adobe Illustrator 16.0.4, SVG Export Plug-In . SVG Version: 6.00 Build 0)  -->
<!DOCTYPE svg PUBLIC "-//W3C//DTD SVG 1.1//EN" "http://www.w3.org/Graphics/SVG/1.1/DTD/svg11.dtd">
<svg version="1.1" id="Layer_1" xmlns="http://www.w3.org/2000/svg" xmlns:xlink="http://www.w3.org/1999/xlink" x="0px" y="0px"
	 width="53px" height="55px" viewBox="0 0 53 55" enable-background="new 0 0 53 55" xml:space="preserve">
<g>
	<polyline fill="none" stroke="#888888" stroke-linecap="round" stroke-linejoin="round" stroke-miterlimit="10" points="
		1.053,18.119 8.226,25.354 23.526,9.829 29.639,15.693 41.312,4.028 	"/>
	<polyline fill="none" stroke="#888888" stroke-linecap="round" stroke-linejoin="round" stroke-miterlimit="10" points="
		1.053,41.742 17.572,25.354 25.917,34.694 30.598,28.888 41.312,39.374 	"/>
	
		<line fill="none" stroke="#888888" stroke-linecap="round" stroke-linejoin="round" stroke-miterlimit="10" x1="1.539" y1="54.231" x2="51.258" y2="54.231"/>
	
		<line fill="none" stroke="#888888" stroke-linecap="round" stroke-linejoin="round" stroke-miterlimit="10" x1="46.207" y1="1" x2="51.872" y2="1"/>
	
		<line fill="none" stroke="#888888" stroke-linecap="round" stroke-linejoin="round" stroke-miterlimit="10" x1="46.284" y1="15.782" x2="51.938" y2="15.782"/>
	
		<line fill="none" stroke="#888888" stroke-linecap="round" stroke-linejoin="round" stroke-miterlimit="10" x1="46.218" y1="28.183" x2="51.938" y2="28.183"/>
	
		<line fill="none" stroke="#888888" stroke-linecap="round" stroke-linejoin="round" stroke-miterlimit="10" x1="46.218" y1="40.711" x2="51.938" y2="40.711"/>
	
		<line fill="none" stroke="#888888" stroke-linecap="round" stroke-linejoin="round" stroke-miterlimit="10" x1="46.207" y1="4.436" x2="48.516" y2="4.436"/>
	
		<line fill="none" stroke="#888888" stroke-linecap="round" stroke-linejoin="round" stroke-miterlimit="10" x1="46.218" y1="19.136" x2="48.571" y2="19.136"/>
	
		<line fill="none" stroke="#888888" stroke-linecap="round" stroke-linejoin="round" stroke-miterlimit="10" x1="46.218" y1="31.618" x2="48.516" y2="31.618"/>
	
		<line fill="none" stroke="#888888" stroke-linecap="round" stroke-linejoin="round" stroke-miterlimit="10" x1="46.207" y1="44.107" x2="48.516" y2="44.107"/>
</g>
</svg>
