<?xml version="1.0" encoding="utf-8"?>
<!-- Generator: Adobe Illustrator 16.0.4, SVG Export Plug-In . SVG Version: 6.00 Build 0)  -->
<!DOCTYPE svg PUBLIC "-//W3C//DTD SVG 1.1//EN" "http://www.w3.org/Graphics/SVG/1.1/DTD/svg11.dtd">
<svg version="1.1" id="Layer_1" xmlns="http://www.w3.org/2000/svg" xmlns:xlink="http://www.w3.org/1999/xlink" x="0px" y="0px"
	 width="179px" height="38px" viewBox="0 0 179 38" enable-background="new 0 0 179 38" xml:space="preserve">
<g>
	<g>
		<rect x="90.924" y="1.074" fill="#FF0000" width="3.266" height="35.881"/>
		<g>
			<path fill="#FF0000" d="M56.717,36.966c2.54-3.444,4.039-7.701,4.039-12.309c0-11.47-9.3-20.77-20.768-20.77
				c-11.471,0-20.771,9.3-20.771,20.77c0,4.604,1.499,8.864,4.035,12.309h4.318c-3.136-3.161-5.073-7.505-5.073-12.309
				c0-9.659,7.831-17.49,17.49-17.49c9.658,0,17.489,7.832,17.489,17.49c0,4.8-1.935,9.149-5.064,12.309H56.717z"/>
			<path fill="#FF0000" d="M153.779,25.633l-2.17-19.786l-2.004,19.786H153.779z M158.113,36.955h-3.191l-0.845-8.084h-4.776
				l-0.777,8.084h-3.256l3.679-35.881h4.979L158.113,36.955z"/>
			<path fill="#FF0000" d="M119.117,32.397c0,1.616-0.951,2.442-2.04,2.442c-1.087,0-2.039-0.826-2.039-2.442V5.297
				c0-1.618,0.952-2.445,2.039-2.445c1.089,0,2.04,0.828,2.04,2.445l-0.008,1.295v6.764h3.282V8.141l-0.007-1.507
				c-0.022-4.472-1.772-6.603-5.421-6.603c-3.249,0-5.366,2.305-5.366,5.843l0.002,1.319V29.65l-0.002,1.454
				c0,4.599,1.785,6.841,5.444,6.841c3.65,0,5.35-2.203,5.35-6.935V17.957h-6.026v3.142h2.744v10.107L119.117,32.397z"/>
			<path fill="#FF0000" d="M132.572,31.537v-9.33l-7.479-5.587V6.194c0-4.097,1.846-6.194,5.455-6.194
				c3.667,0,5.333,2.081,5.358,6.687l0.009,1.431v5.289h-3.344V6.312l-0.01-1.015c0-1.617-0.94-2.445-2.017-2.445
				c-1.077,0-2.021,0.829-2.021,2.445v1.048v8.718l7.391,5.579v10.79c0,4.219-1.88,6.477-5.391,6.477
				c-3.553,0-5.403-2.129-5.425-6.244l-0.007-1.42v-7.021h3.432v8.226v0.948c0,1.617,0.943,2.443,2.021,2.443
				c1.076,0,2.017-0.826,2.017-2.443L132.572,31.537z"/>
			<path fill="#FF0000" d="M66.209,3.898v14.21h1.153c2.114,0,3.107-0.968,3.107-3.03V7.767c0-2.947-0.684-3.869-2.862-3.869H66.209
				z M74.443,36.955h-3.271c-0.446-1.207-0.643-2.342-0.664-3.859l-0.027-1.836l-0.011-0.93v-7.004c0-1.471-0.894-2.141-1.93-2.141
				h-2.331v15.77h-3.201V1.074h4.179c4.692,0,6.502,1.716,6.502,6.308v6.736c0,3.019-0.507,4.286-2.869,5.156
				c0.035,0.011,0.067,0.024,0.099,0.035c2.232,0.649,2.733,1.499,2.759,4.329l0.011,1.302v6.55
				C73.689,33.879,73.866,35.17,74.443,36.955"/>
			<path fill="#FF0000" d="M162.168,3.898v14.21h1.15c2.116,0,3.109-0.968,3.109-3.03V7.767c0-2.947-0.682-3.869-2.864-3.869
				H162.168z M170.402,36.955h-3.273c-0.446-1.207-0.642-2.342-0.662-3.859l-0.029-1.836l-0.01-0.93v-7.004
				c0-1.471-0.896-2.141-1.93-2.141h-2.33v15.77h-3.205V1.074h4.184c4.691,0,6.499,1.716,6.499,6.308v6.736
				c0,3.019-0.506,4.286-2.868,5.156c0.034,0.011,0.066,0.024,0.1,0.035c2.23,0.649,2.732,1.499,2.758,4.329l0.011,1.302v6.55
				C169.646,33.879,169.823,35.17,170.402,36.955"/>
			<polygon fill="#FF0000" points="108.639,1.074 108.639,36.955 105.219,36.955 100.332,15.162 100.332,36.955 97.125,36.955 
				97.125,1.074 100.074,1.074 105.432,24.843 105.432,1.074 			"/>
			<path fill="#FF0000" d="M171.928,4.147c0-1.598,1.301-2.9,2.898-2.9c1.601,0,2.9,1.302,2.9,2.9c0,1.599-1.3,2.9-2.9,2.9
				C173.229,7.048,171.928,5.747,171.928,4.147 M171.598,4.147c0,1.782,1.447,3.232,3.229,3.232c1.783,0,3.232-1.45,3.232-3.232
				c0-1.782-1.449-3.232-3.232-3.232C173.045,0.915,171.598,2.366,171.598,4.147"/>
			<path fill="#FF0000" d="M174.121,4.04h0.952c0.396,0,0.675-0.126,0.675-0.55c0-0.422-0.279-0.552-0.675-0.552h-0.952V4.04z
				 M173.699,2.57h1.441c0.503,0,1.025,0.193,1.025,0.919c0,0.407-0.183,0.801-0.738,0.891l0.877,1.378h-0.509l-0.86-1.353h-0.814
				v1.353h-0.422V2.57z"/>
		</g>
		<polygon fill="#FF0000" points="135.88,1.074 146.295,1.074 146.295,4.064 142.754,4.064 142.754,36.955 139.474,36.955 
			139.474,4.064 135.88,4.064 		"/>
		<polygon fill="#FF0000" points="87.941,1.074 87.941,36.955 84.522,36.955 79.634,15.162 79.634,36.955 76.428,36.955 
			76.428,1.074 79.378,1.074 84.733,24.843 84.733,1.074 		"/>
		<polygon fill="#FF0000" points="11.539,1.074 8.588,22.705 5.461,1.074 0,1.074 0,36.955 3.229,36.955 3.229,6.199 7.124,36.955 
			9.793,36.955 13.752,6.199 13.752,36.955 16.958,36.955 16.958,1.074 		"/>
	</g>
</g>
</svg>
