<?xml version="1.0" encoding="utf-8"?>
<!-- Generator: Adobe Illustrator 16.0.4, SVG Export Plug-In . SVG Version: 6.00 Build 0)  -->
<!DOCTYPE svg PUBLIC "-//W3C//DTD SVG 1.1//EN" "http://www.w3.org/Graphics/SVG/1.1/DTD/svg11.dtd">
<svg version="1.1" id="Layer_1" xmlns="http://www.w3.org/2000/svg" xmlns:xlink="http://www.w3.org/1999/xlink" x="0px" y="0px"
	 width="55px" height="55px" viewBox="0 0 55 55" enable-background="new 0 0 55 55" xml:space="preserve">
<g id="Pie_Chart_21_" opacity="0.8">
	<path fill="none" stroke="#888888" stroke-miterlimit="10" d="M7.799,44.832C3.734,40.189,1.27,34.117,1.27,27.463
		c0-6.812,2.584-13.023,6.826-17.703l9.277,9.258c-1.824,2.273-3.029,5.299-3.029,8.445c0,3.109,1.066,5.969,2.857,8.234"/>
	<path fill="none" stroke="#888888" stroke-miterlimit="10" d="M10.082,7.574c4.686-4.166,10.289-6.254,16.336-6.482v13.09
		c-2.629,0.211-5.107,1.221-7.023,2.789"/>
	<path fill="none" stroke="#888888" stroke-miterlimit="10" d="M29.383,1.184C42.359,2.348,54,13.143,54,26.521H40.871
		c-0.662-6.414-5.248-11.227-11.537-12.195"/>
	<path fill="none" stroke="#888888" stroke-miterlimit="10" d="M54,29.529c-0.771,13.578-12.264,24.668-26.342,24.668
		c-6.768,0-13.174-2.855-17.844-7.064l9.346-9.363c2.291,1.881,5.311,3.314,8.498,3.314c6.904,0,12.572-5.371,13.24-11.725"/>
</g>
</svg>
