<?xml version="1.0" encoding="utf-8"?>
<!-- Generator: Adobe Illustrator 16.0.4, SVG Export Plug-In . SVG Version: 6.00 Build 0)  -->
<!DOCTYPE svg PUBLIC "-//W3C//DTD SVG 1.1//EN" "http://www.w3.org/Graphics/SVG/1.1/DTD/svg11.dtd">
<svg version="1.1" xmlns="http://www.w3.org/2000/svg" xmlns:xlink="http://www.w3.org/1999/xlink" x="0px" y="0px" width="3px"
	 height="3px" viewBox="0 0 3 3" enable-background="new 0 0 3 3" xml:space="preserve">
<pattern  x="3538" y="-4075" width="3" height="3" patternUnits="userSpaceOnUse" id="New_Pattern_Swatch_3" viewBox="0 -3 3 3" overflow="visible">
	<g>
		<polygon fill="none" points="0,0 3,0 3,-3 0,-3 		"/>
		<polygon fill="#010101" points="1,-2 0,-2 0,-3 1,-3 		"/>
		<polygon fill="#010101" points="1,0 0,0 0,-1 1,-1 		"/>
		<polygon fill="#010101" points="2,0 1,0 1,-1 2,-1 		"/>
		<polygon fill="#010101" points="3,-1 2,-1 2,-2 3,-2 		"/>
		<polygon fill="#010101" points="2,-1 1,-1 1,-2 2,-2 		"/>
		<polygon fill="#010101" points="3,-2 2,-2 2,-3 3,-3 		"/>
	</g>
</pattern>
<g id="background">
</g>
<g id="content">
	<pattern  id="SVGID_2_" xlink:href="#New_Pattern_Swatch_3" patternTransform="matrix(1.0008 0 0 1 8.1152 -2.6875)">
	</pattern>
	<rect opacity="0.1" fill="url(#SVGID_2_)" width="3" height="3"/>
</g>
<g id="spec">
</g>
</svg>
