<?xml version="1.0" encoding="utf-8"?>
<!-- Generator: Adobe Illustrator 16.0.4, SVG Export Plug-In . SVG Version: 6.00 Build 0)  -->
<!DOCTYPE svg PUBLIC "-//W3C//DTD SVG 1.1//EN" "http://www.w3.org/Graphics/SVG/1.1/DTD/svg11.dtd">
<svg version="1.1" id="Layer_1" xmlns="http://www.w3.org/2000/svg" xmlns:xlink="http://www.w3.org/1999/xlink" x="0px" y="0px"
	 width="46px" height="46px" viewBox="0 0 46 46" enable-background="new 0 0 46 46" xml:space="preserve">
<g>
	<circle fill="#5FA9DD" cx="22.604" cy="22.604" r="22.5"/>
	<g>
		<path fill="#FFFFFF" d="M33.312,15.594c-0.825,0.49-1.734,0.842-2.707,1.033c-0.777-0.827-1.884-1.346-3.107-1.346
			c-2.354,0-4.262,1.908-4.262,4.262c0,0.334,0.037,0.66,0.109,0.971c-3.542-0.178-6.68-1.872-8.783-4.45
			c-0.366,0.63-0.576,1.361-0.576,2.142c0,1.479,0.752,2.781,1.895,3.546c-0.696-0.02-1.357-0.211-1.93-0.532
			c0,0.018,0,0.038,0,0.053c0,2.063,1.469,3.789,3.418,4.181c-0.359,0.096-0.734,0.149-1.121,0.149
			c-0.275,0-0.542-0.027-0.803-0.079c0.54,1.693,2.115,2.926,3.979,2.961c-1.457,1.142-3.293,1.826-5.291,1.826
			c-0.345,0-0.684-0.022-1.016-0.063c1.886,1.209,4.125,1.916,6.532,1.916c7.836,0,12.122-6.492,12.122-12.123
			c0-0.188-0.002-0.37-0.014-0.554c0.834-0.601,1.56-1.349,2.128-2.206c-0.765,0.341-1.586,0.57-2.448,0.673
			C32.316,17.425,32.993,16.59,33.312,15.594z"/>
	</g>
</g>
</svg>
